# xmcd CD database file
#
# Track frame offsets:
#	150
#	15974
#	35332
#	53176
#	75976
#	95961
#	116401
#	126808
#	147597
#	161694
#	174955
#	194788
#
# Disc length: 2829 seconds
#
# Revision: 0
# Processed by: cddbd v1.5.2PL0 Copyright (c) Steve Scherf et al.
# Submitted via: CDex 1.51
#
DISCID=9d0b0b0c
DTITLE=Luis Diaz y Los Cinco del Son - Montuneando
DYEAR=2004
DGENRE=Salsa
TTITLE0=A media noche
TTITLE1=Vengo montuneando
TTITLE2=Alma con alma
TTITLE3=Cuéntale
TTITLE4=El son no muere
TTITLE5=No hay como mi son
TTITLE6=No regreses
TTITLE7=Prefiere la soledad
TTITLE8=Estoy en llanta
TTITLE9=Site puñales
TTITLE10=El tumbaíto
TTITLE11=El sabor lo pongo yo
EXTD=YEAR: 2004
EXTT0=
EXTT1=
EXTT2=
EXTT3=
EXTT4=
EXTT5=
EXTT6=
EXTT7=
EXTT8=
EXTT9=
EXTT10=
EXTT11=
PLAYORDER=
